<svg width="20" height="16" viewBox="0 0 20 16" fill="none" xmlns="http://www.w3.org/2000/svg">
<path d="M4 4C4 3.60603 4.0776 3.21593 4.22836 2.85195C4.37913 2.48797 4.6001 2.15726 4.87868 1.87868C5.15726 1.6001 5.48797 1.37913 5.85195 1.22836C6.21593 1.0776 6.60603 1 7 1C7.39397 1 7.78407 1.0776 8.14805 1.22836C8.51203 1.37913 8.84274 1.6001 9.12132 1.87868C9.3999 2.15726 9.62087 2.48797 9.77164 2.85195C9.9224 3.21593 10 3.60603 10 4C10 4.39397 9.9224 4.78407 9.77164 5.14805C9.62087 5.51203 9.3999 5.84274 9.12132 6.12132C8.84274 6.3999 8.51203 6.62087 8.14805 6.77164C7.78407 6.9224 7.39397 7 7 7C6.60603 7 6.21593 6.9224 5.85195 6.77164C5.48797 6.62087 5.15726 6.3999 4.87868 6.12132C4.6001 5.84274 4.37913 5.51203 4.22836 5.14805C4.0776 4.78407 4 4.39397 4 4ZM8.42813 10.5C10.9281 10.5 12.9594 12.5094 13 15H1C1.0375 12.5094 3.06875 10.5 5.57188 10.5H8.42813ZM7 8C8.06087 8 9.07828 7.57857 9.82843 6.82843C10.5786 6.07828 11 5.06087 11 4C11 2.93913 10.5786 1.92172 9.82843 1.17157C9.07828 0.421427 8.06087 0 7 0C5.93913 0 4.92172 0.421427 4.17157 1.17157C3.42143 1.92172 3 2.93913 3 4C3 5.06087 3.42143 6.07828 4.17157 6.82843C4.92172 7.57857 5.93913 8 7 8ZM5.57188 9.5C2.49375 9.5 0 11.9937 0 15.0719C0 15.5844 0.415625 16 0.928125 16H13.0719C13.5844 16 14 15.5844 14 15.0719C14 11.9937 11.5063 9.5 8.42813 9.5H5.57188ZM19.0406 16C19.5719 16 20 15.5687 20 15.0406C20 12.2562 17.7437 10 14.9594 10H13.0406C12.9031 10 12.7656 10.0063 12.6281 10.0156C12.9812 10.3094 13.3031 10.6375 13.5875 11H14.9594C17.1781 11 18.9781 12.7875 19 15H15C15 15.025 15 15.0469 15 15.0719C15 15.4094 14.9125 15.725 14.7625 16H19.0406ZM13.5 8C15.4344 8 17 6.43437 17 4.5C17 2.56562 15.4344 1 13.5 1C12.725 1 12.0094 1.25312 11.4281 1.67813C11.5906 1.98438 11.7188 2.3125 11.8156 2.65313C12.2594 2.24688 12.85 2 13.5 2C14.8813 2 16 3.11875 16 4.5C16 5.88125 14.8813 7 13.5 7C12.7125 7 12.0125 6.6375 11.5531 6.06875C11.4062 6.39062 11.2281 6.69063 11.0219 6.97188C11.6562 7.60625 12.5312 8 13.5 8Z" fill="#A1A1AA"/>
</svg>
