<svg width="23" height="16" viewBox="0 0 23 16" fill="none" xmlns="http://www.w3.org/2000/svg">
<path d="M2.5556 0.0114354L11.5019 1.0435L20.4481 0.0114354C20.9746 -0.0481783 21.4749 0.242438 21.684 0.726799L22.8789 3.51001C23.2448 4.36323 22.7482 5.3394 21.8409 5.54805L15.8966 6.91544C15.1909 7.07938 14.4553 6.79994 14.0334 6.21125L11.5019 2.67169L8.96659 6.21498C8.54467 6.80366 7.81284 7.07938 7.10341 6.91917L1.15915 5.54433C0.251829 5.33568 -0.24477 4.35951 0.121145 3.50629L1.31597 0.723073C1.52507 0.238712 2.0254 -0.0519041 2.55187 0.00770958L2.5556 0.0114354ZM2.41745 1.19626L1.22263 3.97947C1.14795 4.15086 1.24876 4.3446 1.43172 4.38559L7.37598 5.75297C7.61121 5.80886 7.85765 5.71572 7.9958 5.51825L10.4265 2.12027L2.41745 1.19626ZM19.8657 6.98623L21.0605 6.64718V12.2732C21.0605 13.0929 20.5004 13.8083 19.7014 14.0095L11.935 15.9469C11.6512 16.0177 11.3525 16.0177 11.065 15.9469L3.29864 14.0095C2.50333 13.8045 1.94326 13.0929 1.94326 12.2695V6.64345L3.13808 6.98251V12.2658C3.13808 12.5378 3.32477 12.7762 3.58988 12.8433L10.9045 14.6727V5.91691C10.9045 5.58904 11.1733 5.32078 11.5019 5.32078C11.8304 5.32078 12.0993 5.58904 12.0993 5.91691V14.6727L19.4139 12.847C19.679 12.7799 19.8657 12.5415 19.8657 12.2695V6.98623ZM12.5772 2.12027L15.0079 5.51825C15.1498 5.71572 15.3925 5.80514 15.6278 5.75297L21.572 4.38559C21.755 4.3446 21.8521 4.14713 21.7811 3.97947L20.5863 1.19626L12.5772 2.12027Z" fill="#A1A1AA"/>
</svg>
