<svg width="12" height="16" viewBox="0 0 12 16" fill="none" xmlns="http://www.w3.org/2000/svg">
<path d="M11 6.02075C11 3.25825 8.7625 1.02075 6 1.02075C3.2375 1.02075 1 3.25825 1 6.02075C1 6.50825 1.16875 7.177 1.51875 8.002C1.85938 8.81138 2.3375 9.6895 2.88125 10.5676C3.94687 12.2958 5.20625 13.9489 6.00313 14.9426C6.79688 13.9489 8.05937 12.2958 9.125 10.5676C9.66562 9.6895 10.1469 8.80825 10.4875 8.002C10.8313 7.177 11 6.50825 11 6.02075ZM12 6.02075C12 8.752 8.34375 13.6145 6.74062 15.6208C6.35625 16.0989 5.64375 16.0989 5.25938 15.6208C3.65625 13.6145 0 8.752 0 6.02075C0 2.70825 2.6875 0.020752 6 0.020752C9.3125 0.020752 12 2.70825 12 6.02075ZM4.5 6.02075C4.5 6.41858 4.65804 6.80011 4.93934 7.08141C5.22064 7.36272 5.60218 7.52075 6 7.52075C6.39782 7.52075 6.77936 7.36272 7.06066 7.08141C7.34196 6.80011 7.5 6.41858 7.5 6.02075C7.5 5.62293 7.34196 5.2414 7.06066 4.96009C6.77936 4.67879 6.39782 4.52075 6 4.52075C5.60218 4.52075 5.22064 4.67879 4.93934 4.96009C4.65804 5.2414 4.5 5.62293 4.5 6.02075ZM6 8.52075C5.33696 8.52075 4.70107 8.25736 4.23223 7.78852C3.76339 7.31968 3.5 6.68379 3.5 6.02075C3.5 5.35771 3.76339 4.72183 4.23223 4.25299C4.70107 3.78414 5.33696 3.52075 6 3.52075C6.66304 3.52075 7.29893 3.78414 7.76777 4.25299C8.23661 4.72183 8.5 5.35771 8.5 6.02075C8.5 6.68379 8.23661 7.31968 7.76777 7.78852C7.29893 8.25736 6.66304 8.52075 6 8.52075Z" fill="#A1A1AA"/>
</svg>
