<svg width="24" height="24" viewBox="0 0 24 24" fill="none" xmlns="http://www.w3.org/2000/svg">
<path d="M6.60547 0.615709C6.65233 0.367307 6.82106 0.1564 7.0554 0.0579771C7.28974 -0.0404461 7.55689 -0.0123252 7.7678 0.132966L12 3.05286L16.2322 0.132966C16.4431 -0.0123252 16.7103 -0.0404461 16.9446 0.0579771C17.1789 0.1564 17.3477 0.367307 17.3945 0.615709L18.3272 5.67279L23.3843 6.60078C23.6327 6.64765 23.8436 6.81637 23.942 7.05072C24.0404 7.28506 24.0123 7.55221 23.867 7.76311L20.9471 12L23.867 16.2322C24.0123 16.4431 24.0404 16.7103 23.942 16.9446C23.8436 17.1789 23.6327 17.3477 23.3843 17.3945L18.3272 18.3272L17.3992 23.3843C17.3524 23.6327 17.1836 23.8436 16.9493 23.942C16.7149 24.0404 16.4478 24.0123 16.2369 23.867L12 20.9471L7.7678 23.867C7.55689 24.0123 7.28974 24.0404 7.0554 23.942C6.82106 23.8436 6.65233 23.6327 6.60547 23.3843L5.67279 18.3272L0.615709 17.3992C0.367308 17.3524 0.156401 17.1836 0.0579777 16.9493C-0.0404472 16.7149 -0.0123272 16.4478 0.132965 16.2369L3.05286 12L0.132965 7.7678C-0.0123272 7.55689 -0.0404472 7.28974 0.0579777 7.0554C0.156401 6.82106 0.367308 6.65234 0.615709 6.60547L5.67279 5.67279L6.60547 0.615709ZM11.5735 4.58076L7.86622 2.02644L7.05071 6.45549C6.99447 6.76013 6.75545 6.99916 6.4508 7.0554L2.02176 7.87091L4.57607 11.5782C4.75417 11.836 4.75417 12.1734 4.57607 12.4312L2.02176 16.1385L6.4508 16.954C6.75545 17.0102 6.99447 17.2492 7.05071 17.5539L7.86622 21.9829L11.5735 19.4286C11.8313 19.2505 12.1687 19.2505 12.4265 19.4286L16.1338 21.9829L16.9493 17.5539C17.0055 17.2492 17.2446 17.0102 17.5492 16.954L21.9736 16.1291L19.4192 12.4218C19.2411 12.164 19.2411 11.8266 19.4192 11.5688L21.9736 7.86622L17.5445 7.05072C17.2399 6.99447 17.0008 6.75545 16.9446 6.4508L16.1291 2.02176L12.4218 4.57607C12.164 4.75417 11.8266 4.75417 11.5688 4.57607L11.5735 4.58076ZM12 17.9991C10.4089 17.9991 8.88303 17.3671 7.75797 16.242C6.63292 15.117 6.00087 13.5911 6.00087 12C6.00087 10.4089 6.63292 8.88303 7.75797 7.75797C8.88303 6.63292 10.4089 6.00087 12 6.00087C13.5911 6.00087 15.117 6.63292 16.242 7.75797C17.3671 8.88303 17.9991 10.4089 17.9991 12C17.9991 13.5911 17.3671 15.117 16.242 16.242C15.117 17.3671 13.5911 17.9991 12 17.9991ZM16.4993 12C16.4993 10.8067 16.0253 9.66227 15.1815 8.81848C14.3377 7.97469 13.1933 7.50065 12 7.50065C10.8067 7.50065 9.66227 7.97469 8.81848 8.81848C7.97469 9.66227 7.50065 10.8067 7.50065 12C7.50065 13.1933 7.97469 14.3377 8.81848 15.1815C9.66227 16.0253 10.8067 16.4993 12 16.4993C13.1933 16.4993 14.3377 16.0253 15.1815 15.1815C16.0253 14.3377 16.4993 13.1933 16.4993 12Z" fill="#71717A"/>
</svg>
