<svg width="20" height="24" viewBox="0 0 20 24" fill="none" xmlns="http://www.w3.org/2000/svg">
<path d="M10.0766 1.86429C12.0967 3.88929 13.3515 6.72321 13.3515 9.85714C13.3515 15.6911 9.00414 20.4804 3.46455 20.9625C4.91193 21.8036 6.58317 22.2857 8.36375 22.2857C13.8721 22.2857 18.334 17.6839 18.334 12C18.334 6.92143 14.7676 2.70536 10.0766 1.86429ZM6.63523 0.7125C6.71333 0.342857 7.0153 0.075 7.37975 0.0428571C7.70775 0.0160714 8.03575 0 8.36896 0C14.7936 0 20 5.37321 20 12C20 18.6268 14.7936 24 8.36375 24C5.20869 24 2.35039 22.7036 0.25222 20.6036C-0.0080986 20.3411 -0.0757809 19.9339 0.0908222 19.6018C0.257427 19.2696 0.616667 19.0821 0.975906 19.1464C1.48613 19.2375 2.00677 19.2857 2.54303 19.2857C7.588 19.2857 11.6802 15.0643 11.6802 9.85714C11.6802 6.33214 9.80592 3.2625 7.03092 1.64464C6.71333 1.45714 6.55193 1.08214 6.63003 0.717857L6.63523 0.7125Z" fill="#A1A1AA"/>
</svg>
