<svg width="15" height="16" viewBox="0 0 15 16" fill="none" xmlns="http://www.w3.org/2000/svg">
<path d="M2 1C1.44687 1 1 1.44687 1 2V14C1 14.5531 1.44687 15 2 15H11C11.5531 15 12 14.5531 12 14V2C12 1.44687 11.5531 1 11 1H2ZM0 2C0 0.896875 0.896875 0 2 0H11C12.1031 0 13 0.896875 13 2V14C13 15.1031 12.1031 16 11 16H2C0.896875 16 0 15.1031 0 14V2ZM7.5 6C7.5 5.73478 7.39464 5.48043 7.20711 5.29289C7.01957 5.10536 6.76522 5 6.5 5C6.23478 5 5.98043 5.10536 5.79289 5.29289C5.60536 5.48043 5.5 5.73478 5.5 6C5.5 6.26522 5.60536 6.51957 5.79289 6.70711C5.98043 6.89464 6.23478 7 6.5 7C6.76522 7 7.01957 6.89464 7.20711 6.70711C7.39464 6.51957 7.5 6.26522 7.5 6ZM4.5 6C4.5 5.46957 4.71071 4.96086 5.08579 4.58579C5.46086 4.21071 5.96957 4 6.5 4C7.03043 4 7.53914 4.21071 7.91421 4.58579C8.28929 4.96086 8.5 5.46957 8.5 6C8.5 6.53043 8.28929 7.03914 7.91421 7.41421C7.53914 7.78929 7.03043 8 6.5 8C5.96957 8 5.46086 7.78929 5.08579 7.41421C4.71071 7.03914 4.5 6.53043 4.5 6ZM5.5 10C4.67188 10 4 10.6719 4 11.5C4 11.775 3.775 12 3.5 12C3.225 12 3 11.775 3 11.5C3 10.1187 4.11875 9 5.5 9H7.5C8.88125 9 10 10.1187 10 11.5C10 11.775 9.775 12 9.5 12C9.225 12 9 11.775 9 11.5C9 10.6719 8.32812 10 7.5 10H5.5ZM15 2.5V4.5C15 4.775 14.775 5 14.5 5C14.225 5 14 4.775 14 4.5V2.5C14 2.225 14.225 2 14.5 2C14.775 2 15 2.225 15 2.5ZM14.5 6C14.775 6 15 6.225 15 6.5V8.5C15 8.775 14.775 9 14.5 9C14.225 9 14 8.775 14 8.5V6.5C14 6.225 14.225 6 14.5 6ZM15 10.5V12.5C15 12.775 14.775 13 14.5 13C14.225 13 14 12.775 14 12.5V10.5C14 10.225 14.225 10 14.5 10C14.775 10 15 10.225 15 10.5Z" fill="#A1A1AA"/>
</svg>
