<svg width="20" height="16" viewBox="0 0 20 16" fill="none" xmlns="http://www.w3.org/2000/svg">
<path d="M7 0.999268C7.39397 0.999268 7.78407 1.07686 8.14805 1.22763C8.51203 1.37839 8.84274 1.59937 9.12132 1.87795C9.3999 2.15652 9.62087 2.48724 9.77164 2.85122C9.9224 3.21519 10 3.6053 10 3.99927C10 4.39323 9.9224 4.78334 9.77164 5.14732C9.62087 5.51129 9.3999 5.84201 9.12132 6.12059C8.84274 6.39916 8.51203 6.62014 8.14805 6.77091C7.78407 6.92167 7.39397 6.99927 7 6.99927C6.60603 6.99927 6.21593 6.92167 5.85195 6.77091C5.48797 6.62014 5.15726 6.39916 4.87868 6.12059C4.6001 5.84201 4.37913 5.51129 4.22836 5.14732C4.0776 4.78334 4 4.39323 4 3.99927C4 3.6053 4.0776 3.21519 4.22836 2.85122C4.37913 2.48724 4.6001 2.15652 4.87868 1.87795C5.15726 1.59937 5.48797 1.37839 5.85195 1.22763C6.21593 1.07686 6.60603 0.999268 7 0.999268ZM7 7.99927C8.06087 7.99927 9.07828 7.57784 9.82843 6.82769C10.5786 6.07755 11 5.06013 11 3.99927C11 2.9384 10.5786 1.92099 9.82843 1.17084C9.07828 0.420695 8.06087 -0.000732422 7 -0.000732422C5.93913 -0.000732422 4.92172 0.420695 4.17157 1.17084C3.42143 1.92099 3 2.9384 3 3.99927C3 5.06013 3.42143 6.07755 4.17157 6.82769C4.92172 7.57784 5.93913 7.99927 7 7.99927ZM5.57188 10.4993H8.42813C8.63125 10.4993 8.83125 10.5118 9.02812 10.5368C9.00937 10.3586 9 10.1805 9 9.99927C9 9.83989 9.00625 9.68364 9.02188 9.53052C8.82812 9.50864 8.62813 9.49927 8.42813 9.49927H5.57188C2.49375 9.49927 0 11.993 0 15.0711C0 15.5836 0.415625 15.9993 0.928125 15.9993H13.0719C13.5844 15.9993 14 15.5836 14 15.0711C14 15.0461 14 15.0243 14 14.9993H13H6H1C1.0375 12.5086 3.06875 10.4993 5.57188 10.4993ZM14 7.00239C14.7956 7.00239 15.5587 7.31846 16.1213 7.88107C16.6839 8.44368 17 9.20674 17 10.0024C17 10.798 16.6839 11.5611 16.1213 12.1237C15.5587 12.6863 14.7956 13.0024 14 13.0024C13.606 13.0024 13.2159 12.9248 12.8519 12.774C12.488 12.6233 12.1573 12.4023 11.8787 12.1237C11.6001 11.8451 11.3791 11.5144 11.2284 11.1504C11.0776 10.7865 11 10.3964 11 10.0024C11 9.60843 11.0776 9.21832 11.2284 8.85434C11.3791 8.49037 11.6001 8.15965 11.8787 7.88107C12.1573 7.6025 12.488 7.38152 12.8519 7.23075C13.2159 7.07999 13.606 7.00239 14 7.00239ZM14 14.0024C14.925 14.0024 15.775 13.6899 16.4531 13.1618L19.1469 15.8555C19.3406 16.0493 19.6594 16.0493 19.8531 15.8555C20.0469 15.6618 20.0469 15.343 19.8531 15.1493L17.1594 12.4555C17.6875 11.7805 18 10.9274 18 10.0055C18 7.79614 16.2094 6.00552 14 6.00552C11.7906 6.00552 10 7.79614 10 10.0055C10 12.2149 11.7906 14.0055 14 14.0055V14.0024Z" fill="#A1A1AA"/>
</svg>
